# xmcd
#
# Track frame offsets:
# 150
# 16855
# 29822
# 47614
# 61142
# 74615
# 88287
# 108762
# 119832
# 130525
# 144295
# 155584
# 166062
# 176525
# 194630
# 205517
# 221957
# 234290
# 245487
# 259480
# 280445
# 293750
# 308522
# 324132
#
# Disc length: 4485 seconds
#
#
# Revision: 0
# Processed by: cddbd v1.5.2PL0 Copyright (c) Steve Scherf et al.
# Submitted via: FreeRIP 2.40 
#
DISCID=61118318
DTITLE=Pardinho e Pardal - Série 1 and 1 - 2 LPs - Pardinho e Pardal - Série 1 and 1 - 2 LPs
DYEAR=2004
DGENRE=Sertanejo
TTITLE0=Os milagres do menino da Tábua
TTITLE1=Venenoso
TTITLE2=Chuva de Pranto
TTITLE3=Rio de Piracicaba
TTITLE4=Um Coração e Dois Amores
TTITLE5=O castigo da cruz
TTITLE6=Datas do Ano
TTITLE7=A saudade terminou
TTITLE8=Pagode não tem dono
TTITLE9=Não se compra o amor
TTITLE10=Balaio de Gato
TTITLE11=Amor Proibido
TTITLE12=Gamadão
TTITLE13=Amigo Fiel
TTITLE14=Na beira do cáis
TTITLE15=Rei dos delegados
TTITLE16=Escondendo minha mágoa
TTITLE17=João sem medo
TTITLE18=Horas perdidas
TTITLE19=O menino da Tábua
TTITLE20=Ninho da saudade
TTITLE21=Carreteiro do Brasil
TTITLE22=Se Deus quer, assim seja
TTITLE23=O nosso amor
EXTD=krlg
EXTT0=
EXTT1=
EXTT2=
EXTT3=
EXTT4=
EXTT5=
EXTT6=
EXTT7=
EXTT8=
EXTT9=
EXTT10=
EXTT11=
EXTT12=
EXTT13=
EXTT14=
EXTT15=
EXTT16=
EXTT17=
EXTT18=
EXTT19=
EXTT20=
EXTT21=
EXTT22=
EXTT23=
PLAYORDER=
